<svg width="423" height="48" viewBox="0 0 423 48" fill="none" xmlns="http://www.w3.org/2000/svg">
<g id="figma-out-0075-ru">
<g id="Linked master / maticon-office-lockup-docspace-ru--color-on-light" clip-path="url(#clip0_42_35320)">
<g id="Maticon/Lockup/Product/Canonical">
<g id="Logo theme / linked Color">
<g id="Native geometry master / linked instance">
<g id="tile/document - 896px">
<path id="document tile / folded silhouette" d="M114.228 6.6001H122.628L127.878 11.8501V20.2501C127.878 21.9898 126.468 23.4001 124.728 23.4001H114.228C112.488 23.4001 111.078 21.9898 111.078 20.2501V9.7501C111.078 8.0104 112.488 6.6001 114.228 6.6001Z" fill="url(#paint0_linear_42_35320)"/>
<path id="document folded corner / vector" d="M122.625 6.6001L127.875 11.8501H124.575C123.413 11.8501 122.625 11.0626 122.625 9.9001V6.6001Z" fill="url(#paint1_linear_42_35320)"/>
<g id="glyph/document / centered 480px">
<rect id="document line 1 / centered" x="115.727" y="12.3374" width="7.5" height="1.05" rx="0.525" fill="#FFFEFC"/>
<rect id="document line 2 / centered" x="116.477" y="14.4751" width="6" height="1.05" rx="0.525" fill="#FFFEFC"/>
<rect id="document line 3 / centered" x="117.227" y="16.6123" width="4.5" height="1.05" rx="0.525" fill="#FFFEFC"/>
</g>
</g>
<g id="tile/analytics - 896px">
<rect id="analytics tile / gradient body" x="129.078" y="6.6001" width="16.8" height="16.8" rx="3.15" fill="url(#paint2_linear_42_35320)"/>
<g id="glyph/analytics / centered 480px">
<rect id="bar 1 / common baseline" x="133.203" y="15.2251" width="2.1" height="4.05" rx="0.675" fill="#FFFEFC"/>
<rect id="bar 2 / common baseline" x="136.426" y="12.9751" width="2.1" height="6.3" rx="0.675" fill="#FFFEFC"/>
<rect id="bar 3 / common baseline" x="139.652" y="10.7251" width="2.1" height="8.55" rx="0.675" fill="#FFFEFC"/>
</g>
</g>
<g id="tile/grid - 896px">
<rect id="grid tile / gradient body" x="111.078" y="24.6001" width="16.8" height="16.8" rx="3.15" fill="url(#paint3_linear_42_35320)"/>
<g id="glyph/grid / centered 480px">
<rect id="grid cell top left" x="115.391" y="28.9126" width="3.375" height="3.375" rx="0.75" fill="#FFFEFC"/>
<rect id="grid cell top right" x="120.188" y="28.9126" width="3.375" height="3.375" rx="0.75" fill="#FFFEFC"/>
<rect id="grid cell bottom left" x="115.391" y="33.7124" width="3.375" height="3.375" rx="0.75" fill="#FFFEFC"/>
<rect id="grid cell bottom right" x="120.188" y="33.7124" width="3.375" height="3.375" rx="0.75" fill="#FFFEFC"/>
</g>
</g>
<g id="tile/pie - 896px">
<rect id="pie tile / gradient body" x="129.078" y="24.6001" width="16.8" height="16.8" rx="3.15" fill="url(#paint4_linear_42_35320)"/>
<g id="glyph/pie / centered 480px">
<path id="pie body / exact radius and rounded inner corner" d="M137.272 29.2314C135.077 29.2314 133.297 31.0111 133.297 33.2064C133.297 35.4018 135.077 37.1814 137.272 37.1814C139.467 37.1814 141.247 35.4018 141.247 33.2064H137.797C137.507 33.2064 137.272 32.9714 137.272 32.6814V29.2314Z" fill="#FFFEFC"/>
<path id="pie slice / congruent exploded quarter" d="M138.094 28.4062C140.289 28.4062 142.069 30.1859 142.069 32.3812H138.619C138.329 32.3812 138.094 32.1462 138.094 31.8562V28.4062Z" fill="#FFFEFC"/>
</g>
</g>
</g>
</g>
<g id="Wordmark and descriptor / linked">
<g id="Wordmark theme / linked RU / Two-tone Dark">
<g id="Wordmark master / linked RU">
<g id="EDIT BRAND NAME / RU / &#208;&#156;&#208;&#144;&#208;&#162;&#208;&#152;&#208;&#154;&#208;&#158;&#208;&#157;&#208;&#158;&#208;&#164;&#208;&#152;&#208;&#161;">
<path d="M157.455 11.2366H160.551L164.696 21.3547H164.86L169.005 11.2366H172.101V25.2002H169.674V15.607H169.544L165.685 25.1593H163.871L160.012 15.5866H159.883V25.2002H157.455V11.2366ZM176.649 25.2002H173.949L178.864 11.2366H181.987L186.91 25.2002H184.21L180.48 14.1002H180.371L176.649 25.2002ZM176.737 19.7252H184.101V21.757H176.737V19.7252ZM186.448 13.357V11.2366H197.589V13.357H193.273V25.2002H190.764V13.357H186.448ZM199.737 11.2366H202.246V20.7547H202.375L208.941 11.2366H211.212V25.2002H208.682V15.6888H208.566L201.98 25.2002H199.737V11.2366ZM222.334 25.2002L217.738 19.0979H216.497V25.2002H213.968V11.2366H216.497V16.9775H217.132L222.095 11.2366H225.211L219.695 17.6047L225.45 25.2002H222.334ZM238.895 18.2184C238.895 19.7229 238.613 21.0116 238.05 22.0843C237.491 23.1525 236.727 23.9706 235.759 24.5388C234.795 25.107 233.702 25.3911 232.479 25.3911C231.257 25.3911 230.161 25.107 229.193 24.5388C228.229 23.9661 227.466 23.1456 226.902 22.0775C226.343 21.0047 226.063 19.7184 226.063 18.2184C226.063 16.7138 226.343 15.4275 226.902 14.3593C227.466 13.2866 228.229 12.4661 229.193 11.8979C230.161 11.3297 231.257 11.0456 232.479 11.0456C233.702 11.0456 234.795 11.3297 235.759 11.8979C236.727 12.4661 237.491 13.2866 238.05 14.3593C238.613 15.4275 238.895 16.7138 238.895 18.2184ZM236.352 18.2184C236.352 17.1593 236.186 16.2661 235.854 15.5388C235.527 14.807 235.072 14.2547 234.491 13.882C233.909 13.5047 233.238 13.3161 232.479 13.3161C231.72 13.3161 231.05 13.5047 230.468 13.882C229.886 14.2547 229.429 14.807 229.097 15.5388C228.77 16.2661 228.607 17.1593 228.607 18.2184C228.607 19.2775 228.77 20.1729 229.097 20.9047C229.429 21.632 229.886 22.1843 230.468 22.5616C231.05 22.9343 231.72 23.1206 232.479 23.1206C233.238 23.1206 233.909 22.9343 234.491 22.5616C235.072 22.1843 235.527 21.632 235.854 20.9047C236.186 20.1729 236.352 19.2775 236.352 18.2184ZM241.287 25.2002V11.2366H243.816V17.1479H250.287V11.2366H252.823V25.2002H250.287V19.2684H243.816V25.2002H241.287Z" fill="#5B5B5B"/>
<path d="M268.051 18.2184C268.051 19.7229 267.77 21.0116 267.206 22.0843C266.647 23.1525 265.883 23.9706 264.915 24.5388C263.951 25.107 262.858 25.3911 261.636 25.3911C260.413 25.3911 259.317 25.107 258.349 24.5388C257.386 23.9661 256.622 23.1456 256.058 22.0775C255.499 21.0047 255.22 19.7184 255.22 18.2184C255.22 16.7138 255.499 15.4275 256.058 14.3593C256.622 13.2866 257.386 12.4661 258.349 11.8979C259.317 11.3297 260.413 11.0456 261.636 11.0456C262.858 11.0456 263.951 11.3297 264.915 11.8979C265.883 12.4661 266.647 13.2866 267.206 14.3593C267.77 15.4275 268.051 16.7138 268.051 18.2184ZM265.508 18.2184C265.508 17.1593 265.342 16.2661 265.011 15.5388C264.683 14.807 264.229 14.2547 263.647 13.882C263.065 13.5047 262.395 13.3161 261.636 13.3161C260.876 13.3161 260.206 13.5047 259.624 13.882C259.042 14.2547 258.586 14.807 258.254 15.5388C257.926 16.2661 257.763 17.1593 257.763 18.2184C257.763 19.2775 257.926 20.1729 258.254 20.9047C258.586 21.632 259.042 22.1843 259.624 22.5616C260.206 22.9343 260.876 23.1206 261.636 23.1206C262.395 23.1206 263.065 22.9343 263.647 22.5616C264.229 22.1843 264.683 21.632 265.011 20.9047C265.342 20.1729 265.508 19.2775 265.508 18.2184ZM275.72 12.7911H278.543C279.634 12.7911 280.602 13.0252 281.447 13.4934C282.293 13.9616 282.957 14.6206 283.438 15.4706C283.92 16.3161 284.161 17.307 284.161 18.4434C284.161 19.5525 283.92 20.5229 283.438 21.3547C282.957 22.1866 282.293 22.8343 281.447 23.2979C280.602 23.757 279.634 23.9866 278.543 23.9866H275.72C274.625 23.9866 273.652 23.7593 272.802 23.3047C271.957 22.8456 271.293 22.2002 270.811 21.3684C270.329 20.5366 270.088 19.5638 270.088 18.4502C270.088 17.3138 270.332 16.3229 270.818 15.4775C271.304 14.6275 271.97 13.9684 272.816 13.5002C273.666 13.0275 274.634 12.7911 275.72 12.7911ZM275.72 14.932C275.057 14.932 274.482 15.0684 273.995 15.3411C273.513 15.6093 273.141 16.0047 272.877 16.5275C272.613 17.0502 272.482 17.6911 272.482 18.4502C272.482 19.1775 272.613 19.7934 272.877 20.2979C273.145 20.8025 273.522 21.1866 274.009 21.4502C274.495 21.7138 275.066 21.8456 275.72 21.8456H278.55C279.209 21.8456 279.777 21.7138 280.254 21.4502C280.736 21.182 281.107 20.7956 281.366 20.2911C281.629 19.782 281.761 19.1661 281.761 18.4434C281.761 17.6934 281.629 17.057 281.366 16.5343C281.107 16.0116 280.736 15.6138 280.254 15.3411C279.777 15.0684 279.209 14.932 278.55 14.932H275.72ZM278.352 10.9911V25.7729H275.918V10.9911H278.352ZM286.568 11.2366H289.077V20.7547H289.207L295.772 11.2366H298.043V25.2002H295.513V15.6888H295.397L288.811 25.2002H286.568V11.2366ZM312.751 15.9479H310.201C310.129 15.5297 309.995 15.1593 309.799 14.8366C309.604 14.5093 309.361 14.232 309.07 14.0047C308.779 13.7775 308.447 13.607 308.074 13.4934C307.706 13.3752 307.308 13.3161 306.881 13.3161C306.122 13.3161 305.449 13.507 304.863 13.8888C304.276 14.2661 303.817 14.8206 303.486 15.5525C303.154 16.2797 302.988 17.1684 302.988 18.2184C302.988 19.2866 303.154 20.1866 303.486 20.9184C303.822 21.6456 304.281 22.1956 304.863 22.5684C305.449 22.9366 306.12 23.1206 306.874 23.1206C307.292 23.1206 307.683 23.0661 308.047 22.957C308.415 22.8434 308.745 22.6775 309.036 22.4593C309.331 22.2411 309.579 21.9729 309.779 21.6547C309.983 21.3366 310.124 20.9729 310.201 20.5638L312.751 20.5775C312.656 21.2411 312.449 21.8638 312.131 22.4456C311.817 23.0275 311.406 23.5411 310.897 23.9866C310.388 24.4275 309.792 24.7729 309.111 25.0229C308.429 25.2684 307.672 25.3911 306.84 25.3911C305.613 25.3911 304.517 25.107 303.554 24.5388C302.59 23.9706 301.831 23.1502 301.276 22.0775C300.722 21.0047 300.445 19.7184 300.445 18.2184C300.445 16.7138 300.724 15.4275 301.283 14.3593C301.842 13.2866 302.604 12.4661 303.567 11.8979C304.531 11.3297 305.622 11.0456 306.84 11.0456C307.617 11.0456 308.34 11.1547 309.008 11.3729C309.676 11.5911 310.272 11.9116 310.795 12.3343C311.317 12.7525 311.747 13.2661 312.083 13.8752C312.424 14.4797 312.647 15.1706 312.751 15.9479Z" fill="#3A3A3A"/>
</g>
</g>
</g>
<g id="Product descriptor / linked docspace / RU">
<path id="EDIT PRODUCT NAME / docspace / RU" d="M211.555 33.8999H209.189V26.9181H211.602C212.295 26.9181 212.891 27.0579 213.389 27.3374C213.889 27.6147 214.273 28.0135 214.541 28.534C214.809 29.0544 214.943 29.6772 214.943 30.4022C214.943 31.1294 214.808 31.7544 214.538 32.2772C214.269 32.7999 213.882 33.201 213.375 33.4806C212.87 33.7601 212.264 33.8999 211.555 33.8999ZM210.453 32.8056H211.493C211.98 32.8056 212.385 32.7169 212.71 32.5397C213.035 32.3601 213.28 32.0931 213.443 31.7385C213.607 31.3817 213.689 30.9363 213.689 30.4022C213.689 29.8681 213.607 29.4249 213.443 29.0726C213.28 28.7181 213.038 28.4533 212.717 28.2783C212.399 28.101 212.003 28.0124 211.531 28.0124H210.453V32.8056ZM222.384 30.409C222.384 31.1613 222.243 31.8056 221.961 32.3419C221.681 32.876 221.299 33.2851 220.815 33.5692C220.334 33.8533 219.787 33.9954 219.176 33.9954C218.564 33.9954 218.016 33.8533 217.532 33.5692C217.051 33.2829 216.669 32.8726 216.387 32.3385C216.107 31.8022 215.968 31.159 215.968 30.409C215.968 29.6567 216.107 29.0135 216.387 28.4794C216.669 27.9431 217.051 27.5329 217.532 27.2488C218.016 26.9647 218.564 26.8226 219.176 26.8226C219.787 26.8226 220.334 26.9647 220.815 27.2488C221.299 27.5329 221.681 27.9431 221.961 28.4794C222.243 29.0135 222.384 29.6567 222.384 30.409ZM221.112 30.409C221.112 29.8794 221.029 29.4329 220.863 29.0692C220.699 28.7033 220.472 28.4272 220.181 28.2408C219.89 28.0522 219.555 27.9579 219.176 27.9579C218.796 27.9579 218.461 28.0522 218.17 28.2408C217.879 28.4272 217.651 28.7033 217.485 29.0692C217.321 29.4329 217.239 29.8794 217.239 30.409C217.239 30.9385 217.321 31.3863 217.485 31.7522C217.651 32.1158 217.879 32.3919 218.17 32.5806C218.461 32.7669 218.796 32.8601 219.176 32.8601C219.555 32.8601 219.89 32.7669 220.181 32.5806C220.472 32.3919 220.699 32.1158 220.863 31.7522C221.029 31.3863 221.112 30.9385 221.112 30.409ZM229.555 29.2738H228.28C228.244 29.0647 228.177 28.8794 228.079 28.7181C227.982 28.5544 227.86 28.4158 227.714 28.3022C227.569 28.1885 227.403 28.1033 227.217 28.0465C227.033 27.9874 226.834 27.9579 226.62 27.9579C226.241 27.9579 225.904 28.0533 225.611 28.2442C225.318 28.4329 225.088 28.7101 224.922 29.076C224.757 29.4397 224.674 29.884 224.674 30.409C224.674 30.9431 224.757 31.3931 224.922 31.759C225.091 32.1226 225.32 32.3976 225.611 32.584C225.904 32.7681 226.239 32.8601 226.617 32.8601C226.826 32.8601 227.021 32.8329 227.203 32.7783C227.387 32.7215 227.552 32.6385 227.697 32.5294C227.845 32.4204 227.969 32.2863 228.069 32.1272C228.171 31.9681 228.242 31.7863 228.28 31.5817L229.555 31.5885C229.508 31.9204 229.404 32.2317 229.245 32.5226C229.088 32.8135 228.883 33.0704 228.628 33.2931C228.374 33.5135 228.076 33.6863 227.735 33.8113C227.394 33.934 227.016 33.9954 226.6 33.9954C225.986 33.9954 225.438 33.8533 224.957 33.5692C224.475 33.2851 224.095 32.8749 223.818 32.3385C223.541 31.8022 223.402 31.159 223.402 30.409C223.402 29.6567 223.542 29.0135 223.821 28.4794C224.101 27.9431 224.482 27.5329 224.963 27.2488C225.445 26.9647 225.991 26.8226 226.6 26.8226C226.988 26.8226 227.35 26.8772 227.684 26.9863C228.018 27.0954 228.316 27.2556 228.577 27.4669C228.838 27.676 229.053 27.9329 229.221 28.2374C229.392 28.5397 229.503 28.8851 229.555 29.2738ZM234.508 28.8374C234.476 28.5397 234.342 28.3079 234.106 28.1419C233.872 27.976 233.567 27.8931 233.192 27.8931C232.928 27.8931 232.702 27.9329 232.514 28.0124C232.325 28.0919 232.181 28.1999 232.081 28.3363C231.981 28.4726 231.93 28.6283 231.927 28.8033C231.927 28.9488 231.96 29.0749 232.026 29.1817C232.094 29.2885 232.186 29.3794 232.302 29.4544C232.418 29.5272 232.547 29.5885 232.688 29.6385C232.828 29.6885 232.97 29.7306 233.114 29.7647L233.768 29.9283C234.032 29.9897 234.285 30.0726 234.528 30.1772C234.774 30.2817 234.993 30.4135 235.186 30.5726C235.382 30.7317 235.536 30.9238 235.65 31.1488C235.764 31.3738 235.82 31.6374 235.82 31.9397C235.82 32.3488 235.716 32.709 235.507 33.0204C235.298 33.3294 234.995 33.5715 234.6 33.7465C234.207 33.9192 233.731 34.0056 233.172 34.0056C232.628 34.0056 232.157 33.9215 231.757 33.7533C231.359 33.5851 231.048 33.3397 230.823 33.0169C230.6 32.6942 230.48 32.301 230.461 31.8374H231.706C231.724 32.0806 231.799 32.2829 231.931 32.4442C232.063 32.6056 232.234 32.726 232.445 32.8056C232.659 32.8851 232.898 32.9249 233.161 32.9249C233.436 32.9249 233.677 32.884 233.884 32.8022C234.093 32.7181 234.257 32.6022 234.375 32.4544C234.493 32.3044 234.553 32.1294 234.556 31.9294C234.553 31.7476 234.5 31.5976 234.395 31.4794C234.291 31.359 234.144 31.259 233.956 31.1794C233.769 31.0976 233.551 31.0249 233.301 30.9613L232.507 30.7567C231.932 30.609 231.477 30.3851 231.143 30.0851C230.811 29.7829 230.645 29.3817 230.645 28.8817C230.645 28.4704 230.757 28.1101 230.98 27.801C231.205 27.4919 231.51 27.2522 231.897 27.0817C232.283 26.909 232.72 26.8226 233.209 26.8226C233.705 26.8226 234.139 26.909 234.511 27.0817C234.886 27.2522 235.181 27.4897 235.394 27.7942C235.608 28.0965 235.718 28.4442 235.725 28.8374H234.508ZM236.948 33.8999V26.9181H239.566C240.103 26.9181 240.553 27.0181 240.916 27.2181C241.282 27.4181 241.558 27.6931 241.745 28.0431C241.933 28.3908 242.028 28.7863 242.028 29.2294C242.028 29.6772 241.933 30.0749 241.745 30.4226C241.556 30.7704 241.278 31.0442 240.909 31.2442C240.541 31.4419 240.088 31.5408 239.549 31.5408H237.814V30.501H239.379C239.692 30.501 239.949 30.4465 240.149 30.3374C240.349 30.2283 240.497 30.0783 240.592 29.8874C240.69 29.6965 240.739 29.4772 240.739 29.2294C240.739 28.9817 240.69 28.7635 240.592 28.5749C240.497 28.3863 240.348 28.2397 240.146 28.1351C239.946 28.0283 239.688 27.9749 239.372 27.9749H238.213V33.8999H236.948ZM243.245 33.8999H241.895L244.353 26.9181H245.914L248.375 33.8999H247.025L245.161 28.3499H245.106L243.245 33.8999ZM243.289 31.1624H246.971V32.1783H243.289V31.1624ZM254.943 29.2738H253.668C253.632 29.0647 253.564 28.8794 253.467 28.7181C253.369 28.5544 253.247 28.4158 253.102 28.3022C252.957 28.1885 252.791 28.1033 252.604 28.0465C252.42 27.9874 252.221 27.9579 252.008 27.9579C251.628 27.9579 251.292 28.0533 250.999 28.2442C250.705 28.4329 250.476 28.7101 250.31 29.076C250.144 29.4397 250.061 29.884 250.061 30.409C250.061 30.9431 250.144 31.3931 250.31 31.759C250.478 32.1226 250.708 32.3976 250.999 32.584C251.292 32.7681 251.627 32.8601 252.004 32.8601C252.213 32.8601 252.409 32.8329 252.591 32.7783C252.775 32.7215 252.939 32.6385 253.085 32.5294C253.233 32.4204 253.357 32.2863 253.457 32.1272C253.559 31.9681 253.629 31.7863 253.668 31.5817L254.943 31.5885C254.895 31.9204 254.792 32.2317 254.633 32.5226C254.476 32.8135 254.27 33.0704 254.016 33.2931C253.761 33.5135 253.463 33.6863 253.122 33.8113C252.782 33.934 252.403 33.9954 251.987 33.9954C251.374 33.9954 250.826 33.8533 250.344 33.5692C249.862 33.2851 249.483 32.8749 249.205 32.3385C248.928 31.8022 248.789 31.159 248.789 30.409C248.789 29.6567 248.929 29.0135 249.209 28.4794C249.488 27.9431 249.869 27.5329 250.351 27.2488C250.833 26.9647 251.378 26.8226 251.987 26.8226C252.376 26.8226 252.737 26.8772 253.071 26.9863C253.405 27.0954 253.703 27.2556 253.964 27.4669C254.226 27.676 254.441 27.9329 254.609 28.2374C254.779 28.5397 254.891 28.8851 254.943 29.2738ZM256.101 33.8999V26.9181H260.642V27.9783H257.366V29.8738H260.407V30.934H257.366V32.8397H260.669V33.8999H256.101Z" fill="#4B515A"/>
</g>
</g>
</g>
</g>
</g>
<defs>
<linearGradient id="paint0_linear_42_35320" x1="112.65" y1="10.1706" x2="126.306" y2="19.8296" gradientUnits="userSpaceOnUse">
<stop stop-color="#22D5E9"/>
<stop offset="0.48" stop-color="#168EF0"/>
<stop offset="1" stop-color="#0B4FE3"/>
</linearGradient>
<linearGradient id="paint1_linear_42_35320" x1="122.539" y1="8.69127" x2="127.478" y2="10.4777" gradientUnits="userSpaceOnUse">
<stop stop-color="#C7FBFF"/>
<stop offset="0.58" stop-color="#72E4F2"/>
<stop offset="1" stop-color="#198FE8"/>
</linearGradient>
<linearGradient id="paint2_linear_42_35320" x1="130.65" y1="10.1706" x2="144.306" y2="19.8296" gradientUnits="userSpaceOnUse">
<stop stop-color="#FFD84A"/>
<stop offset="0.5" stop-color="#FF9E17"/>
<stop offset="1" stop-color="#FF4A2D"/>
</linearGradient>
<linearGradient id="paint3_linear_42_35320" x1="112.65" y1="28.1706" x2="126.306" y2="37.8296" gradientUnits="userSpaceOnUse">
<stop stop-color="#A5EE27"/>
<stop offset="0.5" stop-color="#38D369"/>
<stop offset="1" stop-color="#06A98D"/>
</linearGradient>
<linearGradient id="paint4_linear_42_35320" x1="130.65" y1="28.1706" x2="144.306" y2="37.8296" gradientUnits="userSpaceOnUse">
<stop stop-color="#C33FF0"/>
<stop offset="0.48" stop-color="#6E50F4"/>
<stop offset="1" stop-color="#1458EA"/>
</linearGradient>
<clipPath id="clip0_42_35320">
<rect width="214.05" height="48" fill="white" transform="translate(104.477)"/>
</clipPath>
</defs>
</svg>
